# xmcd CD database file
#
# Track frame offsets:
#	150
#	21743
#	37072
#	57837
#	73502
#	98792
#	122311
#	133570
#	159097
#	169312
#	187803
#	198215
#	212573
#	226183
#	236762
#	248309
#	258381
#	267438
#	288087
#	303374
#	314221
#	322762
#
# Disc length: 4439 seconds
#
# Revision: 0
# Processed by: cddbd v1.5.2PL0 Copyright (c) Steve Scherf et al.
# Submitted via: CDex 1.83
#
DISCID=2b115516
DTITLE=Ray Bryant - Four Classic Albums CD02
DYEAR=2016
DGENRE=Jazz
TTITLE0=Little Susie
TTITLE1=By Myself
TTITLE2=Blues For Norine
TTITLE3=Moon-Faced, Starry Eyed
TTITLE4=Big Buddy
TTITLE5=Willow Weep For Me
TTITLE6=Greensleeves
TTITLE7=So In Love
TTITLE8=If I Can Just Make It (Into Heaven)
TTITLE9=Misty
TTITLE10=On Green Dolphin Street
TTITLE11=Ruby
TTITLE12=Invitation
TTITLE13=Secret Love
TTITLE14=An Affair To Remember (Our Love Affair)
TTITLE15=The High And The Mighty
TTITLE16=Exodus (Main Theme)
TTITLE17=Laura
TTITLE18=Three Coins In The Fountain
TTITLE19=El Cid (Love Theme)
TTITLE20=Tonight
TTITLE21=True Love
EXTD=YEAR: 2016
EXTT0=
EXTT1=
EXTT2=
EXTT3=
EXTT4=
EXTT5=
EXTT6=
EXTT7=
EXTT8=
EXTT9=
EXTT10=
EXTT11=
EXTT12=
EXTT13=
EXTT14=
EXTT15=
EXTT16=
EXTT17=
EXTT18=
EXTT19=
EXTT20=
EXTT21=
PLAYORDER=
